<svg width="116" height="96" viewBox="0 0 116 96" fill="none" xmlns="http://www.w3.org/2000/svg">
<path d="M113 83C113 85.6522 111.946 88.1957 110.071 90.0711C108.196 91.9464 105.652 93 103 93H13C10.3478 93 7.8043 91.9464 5.92893 90.0711C4.05357 88.1957 3 85.6522 3 83V28C3 25.3478 4.05357 22.8043 5.92893 20.9289C7.8043 19.0536 10.3478 18 13 18H33L43 3H73L83 18H103C105.652 18 108.196 19.0536 110.071 20.9289C111.946 22.8043 113 25.3478 113 28V83Z" stroke="black" stroke-width="5" stroke-linecap="round" stroke-linejoin="round"/>
<path d="M58.0002 73C69.0459 73 78.0002 64.0457 78.0002 53C78.0002 41.9543 69.0459 33 58.0002 33C46.9545 33 38.0002 41.9543 38.0002 53C38.0002 64.0457 46.9545 73 58.0002 73Z" stroke="black" stroke-width="5" stroke-linecap="round" stroke-linejoin="round"/>
</svg>
