<svg width="116" height="96" viewBox="0 0 116 96" fill="none" xmlns="http://www.w3.org/2000/svg">
<path d="M78 93V83C78 77.6957 75.8929 72.6086 72.1421 68.8579C68.3914 65.1071 63.3043 63 58 63H23C17.6957 63 12.6086 65.1071 8.85786 68.8579C5.10714 72.6086 3 77.6957 3 83V93" stroke="black" stroke-width="5" stroke-linecap="round" stroke-linejoin="round"/>
<path d="M40.5 43C51.5457 43 60.5 34.0457 60.5 23C60.5 11.9543 51.5457 3 40.5 3C29.4543 3 20.5 11.9543 20.5 23C20.5 34.0457 29.4543 43 40.5 43Z" stroke="black" stroke-width="5" stroke-linecap="round" stroke-linejoin="round"/>
<path d="M98 28V58" stroke="black" stroke-width="5" stroke-linecap="round" stroke-linejoin="round"/>
<path d="M113 43H83" stroke="black" stroke-width="5" stroke-linecap="round" stroke-linejoin="round"/>
</svg>
