<svg width="106" height="96" viewBox="0 0 106 96" fill="none" xmlns="http://www.w3.org/2000/svg">
<path d="M13 3H93C95.6522 3 98.1957 4.05357 100.071 5.92893C101.946 7.8043 103 10.3478 103 13V43C103 56.2608 97.7322 68.9785 88.3553 78.3553C78.9785 87.7322 66.2608 93 53 93C46.4339 93 39.9321 91.7067 33.8658 89.194C27.7995 86.6812 22.2876 82.9983 17.6447 78.3553C8.26784 68.9785 3 56.2608 3 43V13C3 10.3478 4.05357 7.8043 5.92893 5.92893C7.8043 4.05357 10.3478 3 13 3V3Z" stroke="black" stroke-width="5" stroke-linecap="round" stroke-linejoin="round"/>
<path d="M33 38L53 58L73 38" stroke="black" stroke-width="5" stroke-linecap="round" stroke-linejoin="round"/>
</svg>