<svg width="27" height="27" fill="none" xmlns="http://www.w3.org/2000/svg"><path d="M25.95 19.717v3.764a2.51 2.51 0 01-2.735 2.509 24.826 24.826 0 01-10.826-3.851 24.463 24.463 0 01-7.527-7.527A24.827 24.827 0 011.01 3.734 2.51 2.51 0 013.507 1H7.27a2.509 2.509 0 012.51 2.158 16.1 16.1 0 00.877 3.525 2.51 2.51 0 01-.564 2.647L8.5 10.923a20.073 20.073 0 007.527 7.527l1.593-1.593a2.51 2.51 0 012.647-.564c1.138.424 2.32.719 3.525.878a2.509 2.509 0 012.158 2.546z" stroke="#000" stroke-width="2" stroke-linecap="round" stroke-linejoin="round"/></svg>