<svg width="38" height="42" viewBox="0 0 38 42" fill="none" xmlns="http://www.w3.org/2000/svg">
<path d="M7 1L1 9V37C1 38.0609 1.42143 39.0783 2.17157 39.8284C2.92172 40.5786 3.93913 41 5 41H33C34.0609 41 35.0783 40.5786 35.8284 39.8284C36.5786 39.0783 37 38.0609 37 37V9L31 1H7Z" stroke="white" stroke-width="2" stroke-linecap="round" stroke-linejoin="round"/>
<path d="M1 9H37" stroke="white" stroke-width="2" stroke-linecap="round" stroke-linejoin="round"/>
<path d="M27 17C27 19.1217 26.1571 21.1566 24.6569 22.6569C23.1566 24.1571 21.1217 25 19 25C16.8783 25 14.8434 24.1571 13.3431 22.6569C11.8429 21.1566 11 19.1217 11 17" stroke="white" stroke-width="2" stroke-linecap="round" stroke-linejoin="round"/>
</svg>
